<svg width="22" height="22" viewBox="0 0 22 22" fill="none" xmlns="http://www.w3.org/2000/svg">
<path fill-rule="evenodd" clip-rule="evenodd" d="M5.87843 0C5.00423 0 4.40505 1.52477e-08 3.87027 0.136093C3.31679 0.278512 2.80144 0.528483 2.3577 0.869774C1.91396 1.21107 1.55175 1.63604 1.29458 2.11712C1.04683 2.57963 0.930051 3.13116 0.758702 3.93544L0.0820379 7.10549C-0.0378006 7.6612 -0.0262226 8.23479 0.115956 8.78586C0.258135 9.33692 0.527456 9.85206 0.904949 10.295V13.1038C0.904949 14.9846 0.904949 16.4744 1.07193 17.6399C1.24437 18.8392 1.60672 19.8102 2.42308 20.5767C3.23944 21.342 4.27518 21.6818 5.55538 21.8434C6.79848 22 8.38755 22 10.3924 22H11.6072C13.6131 22 15.2022 22 16.4453 21.8434C17.7244 21.6818 18.7602 21.342 19.5776 20.5767C20.394 19.8102 20.7563 18.8392 20.9288 17.6399C21.0957 16.4734 21.0957 14.9846 21.0957 13.1038V10.296C21.4732 9.85287 21.7424 9.33753 21.8844 8.78628C22.0264 8.23503 22.0377 7.66129 21.9176 7.10549L21.2409 3.93544C21.0706 3.13116 20.9528 2.57963 20.7061 2.11712C20.4488 1.63594 20.0864 1.21089 19.6425 0.869594C19.1986 0.528297 18.683 0.278384 18.1293 0.136093C17.5956 1.52477e-08 16.9965 0 16.1212 0H5.87843ZM17.8412 11.7674C18.3967 11.7684 18.9467 11.6647 19.4587 11.4625V13.0465C19.4587 14.9979 19.4565 16.3844 19.3059 17.4363C19.1585 18.4647 18.8813 19.0581 18.4196 19.491C17.958 19.9238 17.325 20.1837 16.2259 20.3219C15.6687 20.386 15.1086 20.4249 14.5474 20.4385V17.6184C14.5474 17.1682 14.5474 16.7793 14.5168 16.4621C14.4841 16.1245 14.412 15.7909 14.2178 15.4767C14.0025 15.1267 13.6927 14.8359 13.3196 14.6336C12.9845 14.4525 12.6287 14.3849 12.2685 14.3542C11.9302 14.3256 11.5155 14.3256 11.0353 14.3256H10.9643C10.4841 14.3256 10.0705 14.3256 9.73106 14.3542C9.3709 14.3849 9.01619 14.4525 8.68113 14.6336C8.30759 14.8357 7.99742 15.1265 7.78183 15.4767C7.58865 15.7909 7.51662 16.1245 7.48387 16.4611C7.45332 16.7804 7.45332 17.1682 7.45332 17.6174V20.4385C6.89139 20.425 6.33049 20.3861 5.77257 20.3219C4.67572 20.1837 4.04271 19.9238 3.58105 19.491C3.11939 19.0581 2.84217 18.4647 2.69484 17.4353C2.54313 16.3844 2.54204 14.9979 2.54204 13.0465V11.4625C3.41427 11.8074 4.38591 11.863 5.29637 11.62C6.20684 11.377 7.00162 10.85 7.54936 10.1261C7.94535 10.6359 8.46455 11.0504 9.06442 11.3357C9.66428 11.621 10.3277 11.769 11.0003 11.7674C11.673 11.769 12.3364 11.621 12.9363 11.3357C13.5361 11.0504 14.0553 10.6359 14.4513 10.1261C14.835 10.6341 15.3431 11.0483 15.933 11.334C16.5229 11.6196 17.1773 11.7682 17.8412 11.7674ZM9.09041 20.4631C9.51387 20.4644 9.96862 20.4651 10.4547 20.4651H11.546C12.0321 20.4651 12.4868 20.4644 12.9103 20.4631V17.6512C12.9103 17.159 12.9092 16.8407 12.8863 16.6003C12.8644 16.37 12.8263 16.2861 12.8001 16.2442C12.7283 16.1278 12.6252 16.0311 12.501 15.9638C12.4563 15.9393 12.3668 15.9045 12.1212 15.883C11.7481 15.8616 11.3741 15.8541 11.0003 15.8605C10.4754 15.8605 10.136 15.8605 9.87949 15.883C9.63283 15.9034 9.54443 15.9393 9.49968 15.9638C9.37513 16.031 9.27161 16.1277 9.19955 16.2442C9.17445 16.2851 9.13625 16.37 9.11442 16.6003C9.0915 16.8407 9.09041 17.159 9.09041 17.6512V20.4631ZM7.366 1.53488H5.99958C4.95839 1.53488 4.59714 1.54205 4.30464 1.61674C3.97261 1.70213 3.66345 1.85201 3.39721 2.05668C3.13096 2.26135 2.9136 2.51622 2.75923 2.80474C2.6228 3.05953 2.54532 3.38902 2.34122 4.34679L1.68857 7.40633C1.61901 7.72112 1.61868 8.04592 1.68759 8.36084C1.75649 8.67577 1.8932 8.9742 2.08933 9.2379C2.28547 9.50159 2.53692 9.72501 2.8283 9.89447C3.11968 10.0639 3.44487 10.1759 3.78398 10.2235C4.12309 10.2711 4.469 10.2533 4.80054 10.1713C5.13208 10.0893 5.44229 9.94471 5.7122 9.74643C5.9821 9.54815 6.20604 9.30034 6.37029 9.01814C6.53455 8.73595 6.63569 8.4253 6.66751 8.10521L6.74282 7.40326L6.74718 7.36028L7.366 1.53488ZM8.37118 7.54651L9.01292 1.53488H12.9878L13.6252 7.51274C13.6609 7.85479 13.6202 8.20006 13.5056 8.52653C13.3911 8.853 13.2052 9.15351 12.9599 9.40888C12.7146 9.66425 12.4152 9.86889 12.0808 10.0097C11.7465 10.1506 11.3844 10.2245 11.0179 10.2269C10.6513 10.2292 10.2883 10.1599 9.95187 10.0234C9.61547 9.88688 9.31312 9.68612 9.06409 9.43392C8.81506 9.18172 8.62483 8.88363 8.50552 8.55867C8.38622 8.2337 8.34046 7.88898 8.37118 7.54651ZM17.6961 1.61674C17.4036 1.54205 17.0423 1.53488 16.0011 1.53488H14.6325L15.3343 8.10419C15.3671 8.42336 15.4689 8.73292 15.6335 9.01402C15.7981 9.29512 16.0219 9.54187 16.2915 9.73925C16.561 9.93663 16.8706 10.0805 17.2013 10.1621C17.5321 10.2437 17.8771 10.2613 18.2153 10.2139C18.5536 10.1665 18.878 10.055 19.1688 9.88628C19.4596 9.71753 19.7108 9.49505 19.9069 9.23239C20.1031 8.96972 20.2402 8.67236 20.3099 8.35843C20.3795 8.04449 20.3803 7.72055 20.3121 7.40633L19.6606 4.34679C19.4554 3.38902 19.3779 3.05953 19.2426 2.80474C19.0881 2.51611 18.8705 2.26117 18.6041 2.0565C18.3377 1.85183 18.0283 1.702 17.6961 1.61674Z" fill="white"/>
</svg>
