<svg width="22" height="22" viewBox="0 0 22 22" fill="none" xmlns="http://www.w3.org/2000/svg">
<path d="M21.982 16.1993L19.734 5.20789C19.6583 4.83739 19.4835 4.50847 19.2372 4.27348C18.9909 4.03849 18.6874 3.91093 18.375 3.91111H11.6V1.71111C11.6 1.2573 11.4525 0.822069 11.1899 0.501173C10.9274 0.180277 10.5713 0 10.2 0H6.2C5.8287 0 5.4726 0.180277 5.21005 0.501173C4.9475 0.822069 4.8 1.2573 4.8 1.71111V3.91111H3.625C3.3127 3.91086 3.0093 4.03824 2.76305 4.273C2.5168 4.50775 2.34184 4.8364 2.266 5.20667L0.018 16.1993C0.00603423 16.2577 -1.12221e-05 16.3176 1.56383e-08 16.3778V20.2889C1.56383e-08 20.7427 0.1475 21.1779 0.410051 21.4988C0.672602 21.8197 1.0287 22 1.4 22H20.6C20.9713 22 21.3274 21.8197 21.5899 21.4988C21.8525 21.1779 22 20.7427 22 20.2889V16.3778C22 16.3176 21.994 16.2577 21.982 16.1993ZM6 1.71111C6 1.64628 6.02107 1.5841 6.05858 1.53826C6.09609 1.49242 6.14696 1.46667 6.2 1.46667H10.2C10.253 1.46667 10.3039 1.49242 10.3414 1.53826C10.3789 1.5841 10.4 1.64628 10.4 1.71111V3.91111H6V1.71111ZM3.431 5.56233C3.44191 5.50956 3.46692 5.46275 3.50206 5.42932C3.5372 5.39589 3.58047 5.37775 3.625 5.37778H18.375C18.4195 5.37775 18.4628 5.39589 18.4979 5.42932C18.5331 5.46275 18.5581 5.50956 18.569 5.56233L20.632 15.6444H1.368L3.431 5.56233ZM20.6 20.5333H1.4C1.34696 20.5333 1.29609 20.5076 1.25858 20.4617C1.22107 20.4159 1.2 20.3537 1.2 20.2889V17.1111H20.8V20.2889C20.8 20.3537 20.7789 20.4159 20.7414 20.4617C20.7039 20.5076 20.653 20.5333 20.6 20.5333ZM4.8 8.55556C4.8 8.36106 4.86321 8.17454 4.97574 8.03701C5.08826 7.89948 5.24087 7.82222 5.4 7.82222H7C7.15913 7.82222 7.31174 7.89948 7.42426 8.03701C7.53679 8.17454 7.6 8.36106 7.6 8.55556C7.6 8.75005 7.53679 8.93657 7.42426 9.0741C7.31174 9.21163 7.15913 9.28889 7 9.28889H5.4C5.24087 9.28889 5.08826 9.21163 4.97574 9.0741C4.86321 8.93657 4.8 8.75005 4.8 8.55556ZM9.6 8.55556C9.6 8.36106 9.66321 8.17454 9.77574 8.03701C9.88826 7.89948 10.0409 7.82222 10.2 7.82222H11.8C11.9591 7.82222 12.1117 7.89948 12.2243 8.03701C12.3368 8.17454 12.4 8.36106 12.4 8.55556C12.4 8.75005 12.3368 8.93657 12.2243 9.0741C12.1117 9.21163 11.9591 9.28889 11.8 9.28889H10.2C10.0409 9.28889 9.88826 9.21163 9.77574 9.0741C9.66321 8.93657 9.6 8.75005 9.6 8.55556ZM14.4 8.55556C14.4 8.36106 14.4632 8.17454 14.5757 8.03701C14.6883 7.89948 14.8409 7.82222 15 7.82222H16.6C16.7591 7.82222 16.9117 7.89948 17.0243 8.03701C17.1368 8.17454 17.2 8.36106 17.2 8.55556C17.2 8.75005 17.1368 8.93657 17.0243 9.0741C16.9117 9.21163 16.7591 9.28889 16.6 9.28889H15C14.8409 9.28889 14.6883 9.21163 14.5757 9.0741C14.4632 8.93657 14.4 8.75005 14.4 8.55556ZM4.8 12.4667C4.8 12.2722 4.86321 12.0856 4.97574 11.9481C5.08826 11.8106 5.24087 11.7333 5.4 11.7333H7C7.15913 11.7333 7.31174 11.8106 7.42426 11.9481C7.53679 12.0856 7.6 12.2722 7.6 12.4667C7.6 12.6612 7.53679 12.8477 7.42426 12.9852C7.31174 13.1227 7.15913 13.2 7 13.2H5.4C5.24087 13.2 5.08826 13.1227 4.97574 12.9852C4.86321 12.8477 4.8 12.6612 4.8 12.4667ZM9.6 12.4667C9.6 12.2722 9.66321 12.0856 9.77574 11.9481C9.88826 11.8106 10.0409 11.7333 10.2 11.7333H11.8C11.9591 11.7333 12.1117 11.8106 12.2243 11.9481C12.3368 12.0856 12.4 12.2722 12.4 12.4667C12.4 12.6612 12.3368 12.8477 12.2243 12.9852C12.1117 13.1227 11.9591 13.2 11.8 13.2H10.2C10.0409 13.2 9.88826 13.1227 9.77574 12.9852C9.66321 12.8477 9.6 12.6612 9.6 12.4667ZM14.4 12.4667C14.4 12.2722 14.4632 12.0856 14.5757 11.9481C14.6883 11.8106 14.8409 11.7333 15 11.7333H16.6C16.7591 11.7333 16.9117 11.8106 17.0243 11.9481C17.1368 12.0856 17.2 12.2722 17.2 12.4667C17.2 12.6612 17.1368 12.8477 17.0243 12.9852C16.9117 13.1227 16.7591 13.2 16.6 13.2H15C14.8409 13.2 14.6883 13.1227 14.5757 12.9852C14.4632 12.8477 14.4 12.6612 14.4 12.4667Z" fill="white"/>
</svg>
